<?xml version="1.0" encoding="UTF-8" standalone="no"?>
<!-- Created with Inkscape (http://www.inkscape.org/) -->

<svg
   xmlns:dc="http://purl.org/dc/elements/1.1/"
   xmlns:cc="http://creativecommons.org/ns#"
   xmlns:rdf="http://www.w3.org/1999/02/22-rdf-syntax-ns#"
   xmlns:svg="http://www.w3.org/2000/svg"
   xmlns="http://www.w3.org/2000/svg"
   xmlns:sodipodi="http://sodipodi.sourceforge.net/DTD/sodipodi-0.dtd"
   xmlns:inkscape="http://www.inkscape.org/namespaces/inkscape"
   width="210mm"
   height="297mm"
   viewBox="0 0 210 297"
   version="1.1"
   id="svg8"
   sodipodi:docname="logo.svg"
   inkscape:version="0.92.3 (2405546, 2018-03-11)">
  <defs
     id="defs2" />
  <sodipodi:namedview
     id="base"
     pagecolor="#ffffff"
     bordercolor="#666666"
     borderopacity="1.0"
     inkscape:pageopacity="0.0"
     inkscape:pageshadow="2"
     inkscape:zoom="0.61091087"
     inkscape:cx="48.884242"
     inkscape:cy="582.05694"
     inkscape:document-units="mm"
     inkscape:current-layer="layer1"
     showgrid="false"
     inkscape:window-width="1853"
     inkscape:window-height="1016"
     inkscape:window-x="67"
     inkscape:window-y="27"
     inkscape:window-maximized="1"
     showguides="false" />
  <metadata
     id="metadata5">
    <rdf:RDF>
      <cc:Work
         rdf:about="">
        <dc:format>image/svg+xml</dc:format>
        <dc:type
           rdf:resource="http://purl.org/dc/dcmitype/StillImage" />
      </cc:Work>
    </rdf:RDF>
  </metadata>
  <g
     inkscape:label="Layer 1"
     inkscape:groupmode="layer"
     id="layer1">
    <path
       style="fill:#00ffff;fill-opacity:1;stroke:#ecf3fa;stroke-width:0.045;stroke-linecap:butt;stroke-linejoin:miter;stroke-miterlimit:0;stroke-dasharray:none;stroke-dashoffset:0;stroke-opacity:1;paint-order:fill markers stroke"
       d="m 175.00474,97.400988 c -1.35316,0.94011 -2.70876,1.88628 -4.01836,2.729042 -1.79826,1.15723 -3.5554,2.22252 -5.27151,3.19618 -1.71611,0.97367 -3.39106,1.85573 -5.02501,2.64584 -1.63397,0.79011 -3.22672,1.48841 -4.77852,2.09496 -1.53355,0.60655 -3.07151,1.13724 -4.61419,1.59215 -1.54268,0.45491 -3.09029,0.83361 -4.6421,1.13688 -1.5518,0.30328 -3.10803,0.53101 -4.66896,0.68265 -1.56094,0.15164 -3.12629,0.22738 -4.69636,0.22738 -0.85805,0 -1.75124,-0.0307 -2.6789,-0.0925 -0.92766,-0.0618 -1.8899,-0.15483 -2.88716,-0.27853 -0.99727,-0.12371 -2.02959,-0.2785 -3.09646,-0.46406 -1.06686,-0.18555 -2.16823,-0.40216 -3.3047,-0.64957 -2.27294,-0.49481 -4.6849,-1.11296 -7.23626,-1.85518 -2.55135,-0.74223 -5.24209,-1.60815 -8.07185,-2.59778 -1.02237,-0.31924 -1.82547,-0.5748 -2.40967,-0.76636 -0.36513,-0.12768 -0.91306,-0.31924 -1.64332,-0.57464 -2.6837,-0.95771 -5.28313,-1.79578 -7.797975,-2.51406 -1.25742,-0.35914 -2.49362,-0.68825 -3.70882,-0.98753 -1.2152,-0.29929 -2.40923,-0.5688 -3.58221,-0.80822 -1.17298,-0.239432 -2.32484,-0.448822 -3.4556,-0.628392 -1.13076,-0.17957 -2.24045,-0.32936 -3.329,-0.44907 -1.08854,-0.11971 -2.15606,-0.20938 -3.20238,-0.26923 -1.04633,-0.0599 -2.07168,-0.0894 -3.07579,-0.0894 -1.77088,0 -3.52534,0.0696 -5.26427,0.20929 -1.73894,0.13966 -3.46221,0.34905 -5.1692,0.62838 -1.70698,0.27933 -3.39804,0.628492 -5.07307,1.047482 -1.67504,0.419 -3.33387,0.90792 -4.97696,1.46658 -1.62483,0.5427 -3.28633,1.17529 -4.98419,1.89756 -1.69786,0.72227 -3.43242,1.53419 -5.2033,2.43603 -1.77088,0.90184 -3.57798,1.8936 -5.42189,2.97501 -1.34129,0.78663 -2.7237,1.67426 -4.10363,2.55592 a 69.327055,57.943305 0 0 0 68.802525,51.42941 69.327055,57.943305 0 0 0 69.32703,-57.94323 69.327055,57.943305 0 0 0 -0.73794,-7.982982 z"
       id="path915"
       inkscape:connector-curvature="0" />
    <path
       style="fill:#ff2a2a;fill-opacity:1;stroke:#ecf3fa;stroke-width:0.045;stroke-linecap:butt;stroke-linejoin:miter;stroke-miterlimit:0;stroke-dasharray:none;stroke-dashoffset:0;stroke-opacity:1;paint-order:fill markers stroke"
       d="m 105.02735,29.526308 a 69.327055,57.943305 0 0 0 -69.327046,57.943242 69.327055,57.943305 0 0 0 0.52452,6.51381 c 1.37992,-0.88165 2.76234,-1.76928 4.10362,-2.55592 1.84391,-1.08141 3.65101,-2.07317 5.42189,-2.97501 1.77089,-0.90184 3.50545,-1.71376 5.2033,-2.43603 1.69786,-0.72227 3.35936,-1.35486 4.9842,-1.89756 1.64308,-0.55866 3.30192,-1.04758 4.97695,-1.46657 1.67504,-0.419 3.36609,-0.76815 5.07308,-1.04748 1.70698,-0.27933 3.43026,-0.48872 5.16919,-0.62839 1.73894,-0.13966 3.4934,-0.20929 5.26428,-0.20929 1.00411,0 2.02945,0.0296 3.07578,0.0894 1.04633,0.0599 2.11384,0.14952 3.20239,0.26924 1.08854,0.11971 2.19823,0.26949 3.32899,0.44906 1.13077,0.17958 2.28263,0.38896 3.45561,0.62839 1.17298,0.23943 2.36701,0.50894 3.58221,0.80822 1.2152,0.29928 2.4514,0.6284 3.70881,0.98754 2.51484,0.71828 5.114276,1.55634 7.797986,2.51405 0.73026,0.2554 1.27818,0.44697 1.64331,0.57465 0.58421,0.19156 1.38731,0.44712 2.40967,0.76636 2.82976,0.98963 5.52051,1.85555 8.07186,2.59777 2.55135,0.74223 4.96331,1.36037 7.23625,1.85519 1.13647,0.24741 2.23784,0.46401 3.30471,0.64957 1.06686,0.18555 2.09919,0.34035 3.09645,0.46405 0.99726,0.12371 1.9595,0.21669 2.88716,0.27854 0.92766,0.0619 1.82085,0.0925 2.67891,0.0925 1.57006,0 3.13542,-0.0757 4.69635,-0.22738 1.56093,-0.15163 3.11716,-0.37937 4.66897,-0.68264 1.5518,-0.30328 3.09941,-0.68197 4.64209,-1.13688 1.54268,-0.45491 3.08064,-0.98561 4.61419,-1.59215 1.5518,-0.60655 3.14456,-1.30486 4.77852,-2.09497 1.63395,-0.79011 3.3089,-1.67216 5.02501,-2.64583 1.71611,-0.97367 3.47324,-2.03896 5.27151,-3.19619 1.3096,-0.84275 2.66519,-1.78892 4.01836,-2.72903 A 69.327055,57.943305 0 0 0 105.02735,29.526308 Z"
       id="path815"
       inkscape:connector-curvature="0" />
    <flowRoot
       xml:space="preserve"
       id="flowRoot821"
       style="font-style:normal;font-weight:normal;font-size:40px;line-height:1.25;font-family:sans-serif;letter-spacing:0px;word-spacing:0px;fill:#000000;fill-opacity:1;stroke:none"
       transform="scale(0.26458333)"><flowRegion
         id="flowRegion823"><rect
           id="rect825"
           width="96.376472"
           height="156.61177"
           x="-288.26892"
           y="282.66757" /></flowRegion><flowPara
         id="flowPara827" /></flowRoot>    <flowRoot
       xml:space="preserve"
       id="flowRoot818"
       style="fill:black;fill-opacity:1;stroke:none;font-family:sans-serif;font-style:normal;font-weight:normal;font-size:40px;line-height:1.25;letter-spacing:0px;word-spacing:0px"><flowRegion
         id="flowRegion820"><rect
           id="rect822"
           width="268.4516"
           height="83.481895"
           x="140.77339"
           y="330.2601" /></flowRegion><flowPara
         id="flowPara824"></flowPara></flowRoot>    <flowRoot
       xml:space="preserve"
       id="flowRoot830"
       style="font-style:normal;font-weight:normal;font-size:40px;line-height:1.25;font-family:sans-serif;letter-spacing:0px;word-spacing:0px;fill:#000000;fill-opacity:1;stroke:none"
       transform="matrix(0.35676184,-0.10567768,0.13869679,0.46823248,-58.77543,-72.651373)"><flowRegion
         id="flowRegion832"><rect
           id="rect834"
           width="104.7616"
           height="55.654606"
           x="117.8568"
           y="374.45639"
           ry="0" /></flowRegion><flowPara
         id="flowPara836">Moje</flowPara></flowRoot>    <flowRoot
       xml:space="preserve"
       id="flowRoot838"
       style="font-style:normal;font-weight:normal;font-size:40px;line-height:1.25;font-family:sans-serif;letter-spacing:0px;word-spacing:0px;fill:#000000;fill-opacity:1;stroke:none"
       transform="matrix(0.32642781,0.10229628,-0.14268869,0.45532015,37.420265,-115.60261)"><flowRegion
         id="flowRegion840"><rect
           id="rect842"
           width="155.50549"
           height="75.297401"
           x="306.10031"
           y="359.7243" /></flowRegion><flowPara
         id="flowPara844">piękne</flowPara></flowRoot>    <flowRoot
       xml:space="preserve"
       id="flowRoot846"
       style="font-style:normal;font-weight:normal;font-size:40px;line-height:1.25;font-family:sans-serif;letter-spacing:0px;word-spacing:0px;fill:#000000;fill-opacity:1;stroke:none"
       transform="matrix(0.44938959,-0.14341851,0.13146473,0.41193344,-137.7121,17.211093)"><flowRegion
         id="flowRegion848"><rect
           id="rect850"
           width="147.321"
           height="67.1129"
           x="491.07001"
           y="359.7243" /></flowRegion><flowPara
         id="flowPara852">logo</flowPara></flowRoot>  </g>
</svg>
