<?xml version="1.0" encoding="UTF-8" standalone="no"?>
<!-- Created with Inkscape (http://www.inkscape.org/) -->

<svg
   xmlns:dc="http://purl.org/dc/elements/1.1/"
   xmlns:cc="http://creativecommons.org/ns#"
   xmlns:rdf="http://www.w3.org/1999/02/22-rdf-syntax-ns#"
   xmlns:svg="http://www.w3.org/2000/svg"
   xmlns="http://www.w3.org/2000/svg"
   xmlns:sodipodi="http://sodipodi.sourceforge.net/DTD/sodipodi-0.dtd"
   xmlns:inkscape="http://www.inkscape.org/namespaces/inkscape"
   width="194mm"
   height="118mm"
   viewBox="0 0 194 118"
   version="1.1"
   id="svg8"
   inkscape:version="0.92.3 (2405546, 2018-03-11)"
   sodipodi:docname="oko.svg">
  <defs
     id="defs2" />
  <sodipodi:namedview
     id="base"
     pagecolor="#ffffff"
     bordercolor="#666666"
     borderopacity="1.0"
     inkscape:pageopacity="0.0"
     inkscape:pageshadow="2"
     inkscape:zoom="0.71"
     inkscape:cx="208.77604"
     inkscape:cy="308.62321"
     inkscape:document-units="mm"
     inkscape:current-layer="layer1"
     showgrid="false"
     showguides="true"
     inkscape:guide-bbox="true"
     inkscape:window-width="1853"
     inkscape:window-height="1021"
     inkscape:window-x="67"
     inkscape:window-y="27"
     inkscape:window-maximized="1">
    <sodipodi:guide
       position="99.785712,110.36905"
       orientation="1,0"
       id="guide815"
       inkscape:locked="false" />
    <sodipodi:guide
       position="99.785713,61.232143"
       orientation="0,1"
       id="guide817"
       inkscape:locked="false" />
  </sodipodi:namedview>
  <metadata
     id="metadata5">
    <rdf:RDF>
      <cc:Work
         rdf:about="">
        <dc:format>image/svg+xml</dc:format>
        <dc:type
           rdf:resource="http://purl.org/dc/dcmitype/StillImage" />
        <dc:title></dc:title>
      </cc:Work>
    </rdf:RDF>
  </metadata>
  <g
     inkscape:label="Layer 1"
     inkscape:groupmode="layer"
     id="layer1"
     transform="translate(0,-179)">
    <path
       style="fill:none;fill-opacity:1;stroke:#000000;stroke-width:10.47200012;stroke-miterlimit:4;stroke-dasharray:none;stroke-opacity:1"
       d="M 93.077965,166.71947 A 126.62192,99.078672 0 0 0 -30.799054,242.65111 126.62192,99.078672 0 0 0 87.996286,311.66566 126.62192,99.078672 0 0 0 212.69742,235.76786 126.62192,99.078672 0 0 0 93.077965,166.71947 Z"
       id="path837"
       inkscape:connector-curvature="0" />
    <path
       style="fill:none;fill-opacity:1;stroke:#000000;stroke-width:16.54762077;stroke-miterlimit:4;stroke-dasharray:none;stroke-opacity:1"
       id="path868"
       sodipodi:type="arc"
       sodipodi:cx="89.678741"
       sodipodi:cy="235.54839"
       sodipodi:rx="67.061768"
       sodipodi:ry="58.169823"
       sodipodi:start="0.016580628"
       sodipodi:end="0.0037728433"
       sodipodi:open="true"
       d="M 156.73129,236.51283 A 67.061768,58.169823 0 0 1 88.78157,293.713 67.061768,58.169823 0 0 1 22.620447,234.95642 67.061768,58.169823 0 0 1 90.146479,177.37998 67.061768,58.169823 0 0 1 156.74003,235.76785" />
    <path
       d="M 118.59225,236.06133 A 22.923355,22.915327 0 0 1 95.365368,258.59467 22.923355,22.915327 0 0 1 72.749875,235.4482 22.923355,22.915327 0 0 1 95.831927,212.76663 22.923355,22.915327 0 0 1 118.59523,235.76785"
       sodipodi:open="true"
       sodipodi:end="0.0037728433"
       sodipodi:start="0.016580628"
       sodipodi:ry="22.915327"
       sodipodi:rx="22.923355"
       sodipodi:cy="235.6814"
       sodipodi:cx="95.672043"
       sodipodi:type="arc"
       id="path879"
       style="fill:none;fill-opacity:1;stroke:#000000;stroke-width:6.07227182;stroke-miterlimit:4;stroke-dasharray:none;stroke-opacity:1" />
  </g>
</svg>
