<?xml version="1.0" encoding="UTF-8" standalone="no"?>
<!-- Created with Inkscape (http://www.inkscape.org/) -->

<svg
   xmlns:dc="http://purl.org/dc/elements/1.1/"
   xmlns:cc="http://creativecommons.org/ns#"
   xmlns:rdf="http://www.w3.org/1999/02/22-rdf-syntax-ns#"
   xmlns:svg="http://www.w3.org/2000/svg"
   xmlns="http://www.w3.org/2000/svg"
   xmlns:sodipodi="http://sodipodi.sourceforge.net/DTD/sodipodi-0.dtd"
   xmlns:inkscape="http://www.inkscape.org/namespaces/inkscape"
   width="194mm"
   height="118mm"
   viewBox="0 0 194 118"
   version="1.1"
   id="svg8"
   inkscape:version="0.92.3 (2405546, 2018-03-11)"
   sodipodi:docname="oko.svg">
  <defs
     id="defs2" />
  <sodipodi:namedview
     id="base"
     pagecolor="#ffffff"
     bordercolor="#666666"
     borderopacity="1.0"
     inkscape:pageopacity="0.0"
     inkscape:pageshadow="2"
     inkscape:zoom="1.0263363"
     inkscape:cx="302.58452"
     inkscape:cy="266.86405"
     inkscape:document-units="mm"
     inkscape:current-layer="layer1"
     showgrid="false"
     showguides="true"
     inkscape:guide-bbox="true"
     inkscape:window-width="1853"
     inkscape:window-height="1021"
     inkscape:window-x="67"
     inkscape:window-y="27"
     inkscape:window-maximized="1">
    <sodipodi:guide
       position="99.785712,110.36905"
       orientation="1,0"
       id="guide815"
       inkscape:locked="false" />
    <sodipodi:guide
       position="99.785713,61.232143"
       orientation="0,1"
       id="guide817"
       inkscape:locked="false" />
  </sodipodi:namedview>
  <metadata
     id="metadata5">
    <rdf:RDF>
      <cc:Work
         rdf:about="">
        <dc:format>image/svg+xml</dc:format>
        <dc:type
           rdf:resource="http://purl.org/dc/dcmitype/StillImage" />
        <dc:title />
      </cc:Work>
    </rdf:RDF>
  </metadata>
  <g
     inkscape:label="Layer 1"
     inkscape:groupmode="layer"
     id="layer1"
     transform="translate(0,-179)">
    <path
       style="fill:none;fill-opacity:1;stroke:#000000;stroke-width:10.47200012;stroke-miterlimit:4;stroke-dasharray:none;stroke-opacity:1"
       d="M 93.077965,166.71947 A 126.62192,99.078672 0 0 0 -30.799054,242.65111 126.62192,99.078672 0 0 0 87.996286,311.66566 126.62192,99.078672 0 0 0 212.69742,235.76786 126.62192,99.078672 0 0 0 93.077965,166.71947 Z"
       id="path837"
       inkscape:connector-curvature="0" />
    <path
       style="fill:none;fill-opacity:1;stroke:#000000;stroke-width:16.54762077;stroke-miterlimit:4;stroke-dasharray:none;stroke-opacity:1"
       id="path868"
       sodipodi:type="arc"
       sodipodi:cx="98.185936"
       sodipodi:cy="235.54839"
       sodipodi:rx="67.061768"
       sodipodi:ry="58.169823"
       sodipodi:start="4.3841014"
       sodipodi:end="3.5490563"
       sodipodi:open="true"
       d="m 76.563711,180.48507 a 67.061768,58.169823 0 0 1 79.243189,25.30349 67.061768,58.169823 0 0 1 -12.11505,72.4878 67.061768,58.169823 0 0 1 -84.264837,4.74245 67.061768,58.169823 0 0 1 -22.812423,-70.52207" />
    <path
       d="m 87.324171,208.55083 a 29.528532,30.021379 0 0 1 36.010389,9.10435 29.528532,30.021379 0 0 1 -1.1774,37.70746 29.528532,30.021379 0 0 1 -36.505873,6.76383 29.528532,30.021379 0 0 1 -14.185113,-34.86109 l 28.319539,8.50247 z"
       sodipodi:end="3.4287361"
       sodipodi:start="4.27672"
       sodipodi:ry="30.021379"
       sodipodi:rx="29.528532"
       sodipodi:cy="235.76785"
       sodipodi:cx="99.785713"
       sodipodi:type="arc"
       id="path879"
       style="fill:#000000;fill-opacity:1;stroke:none;stroke-width:7.9330678;stroke-miterlimit:4;stroke-dasharray:none;stroke-opacity:1" />
  </g>
</svg>
